<svg width="38" height="38" viewBox="0 0 38 38" fill="none" xmlns="http://www.w3.org/2000/svg">
<path fill-rule="evenodd" clip-rule="evenodd" d="M12.9767 18.6752C14.7809 20.4829 17.1707 21.4784 19.7054 21.4784H22.1093V34.8494C22.1093 35.1126 22.0053 35.3616 21.8164 35.5504C21.6271 35.74 21.3786 35.8446 21.1161 35.8446H17.0135C16.7509 35.8446 16.5025 35.7403 16.3132 35.551C16.1241 35.3612 16.0195 35.112 16.0195 34.8494V30.542C16.0195 29.7106 15.6962 28.9287 15.1085 28.3407C14.5182 27.7494 13.7365 27.4239 12.9069 27.4239H11.355C10.525 27.4239 9.7433 27.7491 9.15337 28.3404C8.56266 28.9272 8.23753 29.7091 8.23753 30.542V34.8494C8.23753 35.1119 8.13341 35.3611 7.94426 35.5513C7.75472 35.7403 7.50613 35.8446 7.24435 35.8446H3.14152C2.88522 35.8446 2.63115 35.7367 2.44487 35.5496C2.25598 35.3644 2.15187 35.1155 2.15187 34.8494V13.9232C2.15187 13.0445 2.49595 12.2161 3.11997 11.5904C3.74764 10.9624 4.57492 10.6163 5.44936 10.6163H10.1817V11.9396C10.1817 14.4783 11.1742 16.8703 12.9767 18.6752ZM35.2092 2.79538C33.4095 0.992676 31.0182 0 28.4763 0H10.1817V8.46124H5.44936C4.00211 8.46124 2.63585 9.03104 1.60231 10.0658C0.568763 11.0969 0 12.4667 0 13.9232V34.8494C0 35.6878 0.328012 36.4782 0.923554 37.0751C1.5187 37.6715 2.3064 38 3.14152 38H7.24435C8.08195 38 8.87069 37.6715 9.46597 37.0751C10.0614 36.4789 10.3891 35.6883 10.3891 34.8494V30.542C10.3891 30.2885 10.4892 30.0467 10.671 29.8605C10.855 29.6765 11.0979 29.5753 11.355 29.5753H12.9069C13.1618 29.5753 13.4033 29.6769 13.587 29.861C13.7706 30.0451 13.8721 30.287 13.8721 30.542V34.8494C13.8721 35.6907 14.1983 36.4812 14.7912 37.0751C15.3864 37.6715 16.1755 38 17.0135 38H21.1161C21.9537 38 22.7424 37.6715 23.3377 37.0751C23.9305 36.4817 24.2572 35.6913 24.2572 34.8494V21.4784H28.5455V15.7694C28.5455 13.7959 27.7727 11.9327 26.3687 10.5234C24.962 9.11779 23.102 8.34374 21.1323 8.34374H20.8645V10.4991H21.1323C22.5315 10.4991 23.8506 11.0492 24.8475 12.0479C25.8447 13.0465 26.394 14.3681 26.394 15.7694V19.323H19.7054C17.7473 19.323 15.8981 18.5531 14.4984 17.155C13.1026 15.753 12.3337 13.9009 12.3337 11.9396V2.15531H28.4763C30.4465 2.15531 32.2974 2.92399 33.6876 4.31965C35.0808 5.71087 35.8481 7.5646 35.8481 9.53883V32.6917C35.8481 33.53 35.518 34.3199 34.9196 34.9159C34.3252 35.5146 33.5369 35.8446 32.7 35.8446C31.86 35.8446 31.0705 35.5144 30.4761 34.9155C29.8777 34.3162 29.548 33.5263 29.548 32.6917C29.548 31.8541 29.8777 31.0629 30.4761 30.4639C31.0747 29.8649 31.8642 29.5348 32.7 29.5348H32.9676V27.3835H32.7C31.2908 27.3835 29.9605 27.9361 28.954 28.9397C27.9519 29.9434 27.4002 31.2759 27.4002 32.6917C27.4002 34.105 27.9519 35.4361 28.9536 36.4397C29.9633 37.4459 31.2933 38 32.7 38C34.1079 38 35.437 37.4459 36.442 36.4395C37.4468 35.4331 38 34.1022 38 32.6917V9.53883C38 6.9927 37.009 4.59782 35.2092 2.79538Z" fill="#820BC6"/>
</svg>
